<?xml version="1.0" encoding="utf-8"?>
<!-- Generator: Adobe Illustrator 25.2.3, SVG Export Plug-In . SVG Version: 6.00 Build 0)  -->
<svg version="1.1" xmlns="http://www.w3.org/2000/svg" xmlns:xlink="http://www.w3.org/1999/xlink" x="0px" y="0px"
	 viewBox="0 0 512 512" style="enable-background:new 0 0 512 512;" xml:space="preserve">
<style type="text/css">
	.st0{fill:none;stroke:#020000;stroke-width:3;stroke-miterlimit:10;}
</style>
<g>
</g>
<g id="cup-anim">
	<path class="st0" d="M122.1,151.4c0-1.5,0.3-3,0.9-4.5c5.8-13.5,19.8-40.4,49.5-61.7c3-2.2,21.6-15.1,45.3-22.1c0.1,0,0.1,0,0.1,0
		c0,0,20.6-6.2,42.6-5.6c49.8,1.3,84.9,29.3,102.7,47.6c8.1,8.4,12.7,19.6,12.7,31.3v1.5c0,5.3-4.3,9.6-9.6,9.6h-30.2
		c-4.4,0-7.9,3.5-7.9,7.9v9.5c0,13.6-11,24.6-24.6,24.6h0c-14,0-25.4-11.4-25.4-25.4v-10.5c0-10.4-8.4-18.8-18.8-18.8h0
		c-10.4,0-18.8,8.4-18.8,18.8v24.6c0,19.3-15.7,35-35,35h-0.4c-19.3,0-35-15.7-35-35v-8.7c0-3.7-3-6.7-6.7-6.7h-31.9
		c-5.2,0-9.4-4.2-9.4-9.4V151.4z"/>
	<path class="st0" d="M123.9,244.5v-48.3c0,0-0.1-17.5,10.2-33.2"/>
	<path class="st0" d="M388.1,244.5V188c0,0-0.5-24.5-15.2-43"/>
	<path class="st0" d="M288.7,310.3h83.8c16.6,0,30-13.4,30-30v-30.8c0-2.8-2.2-5-5-5H115.5c-2.8,0-5,2.2-5,5v30.8
		c0,16.6,13.4,30,30,30h79.2"/>
	<path class="st0" d="M151.7,310.3l31,180.8c2.1,12.1,12.6,20.9,24.8,20.9h93.6c11.9,0,22.2-8.5,24.5-20.2l35.3-181.6"/>
	<path class="st0" d="M213.4,65.5c-0.6-4-2-17.1,6-29.9C232,15.2,256,14.8,257.2,14.8c1.1,0,25.3,0.4,37.8,20.7
		c7.6,12.3,6.5,24.9,6,29"/>
	<circle class="st0" cx="254.8" cy="310.3" r="1.2"/>
</g>
</svg>
