<?xml version="1.0" encoding="utf-8"?>
<!-- Generator: Adobe Illustrator 25.2.3, SVG Export Plug-In . SVG Version: 6.00 Build 0)  -->
<svg version="1.1" id="esk-anim" xmlns="http://www.w3.org/2000/svg" xmlns:xlink="http://www.w3.org/1999/xlink" x="0px" y="0px"
	 viewBox="0 0 241.2 508.9" style="enable-background:new 0 0 241.2 508.9;" xml:space="preserve">
<style type="text/css">
	.st0{fill:none;stroke:#000000;stroke-width:3;stroke-miterlimit:10;}
</style>
<path class="st0" d="M83.4,370.7v101.1c0,19.7,16,35.7,35.7,35.7l0,0h3.2c19.7,0,35.7-16,35.7-35.7V370.7"/>
<path class="st0" d="M1.5,238.9h119.1v45c0,19.5,15.9,35.3,35.4,35.3h1.7c18.9,0,34.2-15.3,34.2-34.2l0,0v-46.1h47.9"/>
<path class="st0" d="M47.6,370.7h146.1c25.4,0,46-20.6,46-46V121.1c0-66-53.5-119.6-119.6-119.6l0,0C54.6,1.5,1.5,54.6,1.5,120.2
	c0,0,0,0,0,0v204.5C1.5,350.1,22.1,370.7,47.6,370.7C47.6,370.7,47.6,370.7,47.6,370.7z"/>
</svg>
