<?xml version="1.0" encoding="utf-8"?>
<!-- Generator: Adobe Illustrator 25.2.3, SVG Export Plug-In . SVG Version: 6.00 Build 0)  -->
<svg version="1.1" id="roj-anim" xmlns="http://www.w3.org/2000/svg" xmlns:xlink="http://www.w3.org/1999/xlink" x="0px" y="0px"
	 viewBox="0 0 273.4 499.7" style="enable-background:new 0 0 273.4 499.7;" xml:space="preserve">
<style type="text/css">
	.st0{fill:none;stroke:#000000;stroke-width:3;stroke-miterlimit:10;}
</style>
<g id="Layer_3">
	<path class="st0" d="M170.1,211.8h80.9c13.4-4,21.8-15.4,20.9-26.1c-0.9-10.7-11.1-18.9-20.3-20.9c-15.8-3.3-21.6,12.9-40.7,12.5
		c-16.9-0.3-18.6-13.1-36-13.6c-17.9-0.5-20.8,12.8-39.1,12.5c-17-0.3-18.6-11.8-35.5-12c-18.6-0.2-21.6,13.8-39.1,13
		s-21.5-15.1-36-13c-10.8,1.5-24.3,11.8-23.5,25c0.6,10.5,10,20.3,23,22.4h77.2c0,0,21.4,0.5,21.4,18.8v39.1c0,0,1.1,13.2,13.2,13
		s12.3-13,12.3-13v-42.2C148.7,227.4,149.7,211.8,170.1,211.8z"/>
	<line class="st0" x1="85.5" y1="353.7" x2="43.8" y2="211.8"/>
	<path class="st0" d="M231.1,211.8l-83.5,278.6c0,0-4.1,8.3-10.9,7.8s-11-7.8-11-7.8L92.8,376.6c0,0,59.3-3.5,100.6-39"/>
	<path class="st0" d="M29.7,164.8c-5.5-11.3-12-29.1-11-50.6C21.4,62.1,68.2,1.9,135.6,1.5C206.8,1.1,253,67.8,254,120.5
		c0.2,15.5-3.2,30.9-9.9,44.9"/>
</g>
</svg>
