<svg id="Layer_3" data-name="Layer 3" xmlns="http://www.w3.org/2000/svg" viewBox="0 0 85.57 58.2"><path d="M110.42,360.37c6.85,3.34,20.37,8.75,31.83,4.56,2.61-.95,7.39-2.7,7.95-6.26.37-2.32-1-5.6-3.65-6.13s-5.23,2-5.74,4.31c-.78,3.59,3.12,8.14,7.57,8.08,3.64,0,7.43-3,7.43-6.65,0-2.33-1.57-5.35-4.3-5.74s-5.3,2.15-5.74,4.44c-.74,3.86,4.11,8.88,8.87,8.22,3.23-.46,6.33-3.52,6.26-6.92-.05-2.27-1.26-5.29-3.92-5.48s-4.26,2.23-4.56,4.31c-.52,3.54,3,8.08,7.3,7.69,3.35-.29,6.33-3.22,6.49-6.26.12-2.08-.35-5.26-3.09-5.61-2-.25-4.55,2.3-4.83,5-.39,3.69,3.56,7.31,6.52,6.91a2.4,2.4,0,0,0,2.18-2.69c-.26-.46-.91-.41-1.27.35s1,2.47,2,2.74c1.85.49,5.93-3,12.52-18.66,3.19-7.58.14-17.88-4.55-6.3s-11.59,38.95-18.15,47.7-5.67,3-.85-5.57,22.1-21.86,23.18-22.46-2.83,7.89.89,5.41,14.73-11.63,14.73-11.63" transform="translate(-110.2 -334.54)" style="fill:none;stroke:#000;stroke-miterlimit:10"/></svg>